<svg width="124" height="123" viewBox="0 0 124 123" fill="none" xmlns="http://www.w3.org/2000/svg">
<path d="M50.0325 67.4395C52.6022 70.8495 55.8807 73.671 59.6457 75.7128C63.4106 77.7545 67.5739 78.9686 71.8532 79.2729C76.1324 79.5771 80.4275 78.9642 84.4472 77.4759C88.4668 75.9875 92.117 73.6585 95.1501 70.6468L113.101 52.8284C118.551 47.2274 121.567 39.7258 121.499 31.9393C121.431 24.1527 118.284 16.7043 112.737 11.1981C107.19 5.69202 99.6857 2.56879 91.8411 2.50112C83.9965 2.43346 76.4389 5.42678 70.7961 10.8364L60.5041 20.9929M73.9675 55.5605C71.3978 52.1505 68.1193 49.329 64.3543 47.2872C60.5894 45.2455 56.4261 44.0313 52.1468 43.7271C47.8676 43.4229 43.5724 44.0358 39.5528 45.5241C35.5331 47.0125 31.883 49.3415 28.8499 52.3532L10.8986 70.1716C5.44862 75.7726 2.43296 83.2742 2.50113 91.0607C2.5693 98.8473 5.71583 106.296 11.263 111.802C16.8102 117.308 24.3143 120.431 32.1589 120.499C40.0035 120.567 47.5611 117.573 53.2038 112.164L63.4361 102.007" stroke="white" stroke-width="5" stroke-linecap="round" stroke-linejoin="round"/>
</svg>
