<svg width="225" height="226" viewBox="0 0 225 226" fill="none" xmlns="http://www.w3.org/2000/svg">
<path d="M222.098 167.243V200.368C222.11 203.443 221.481 206.487 220.249 209.304C219.017 212.122 217.21 214.651 214.944 216.73C212.678 218.809 210.003 220.392 207.09 221.377C204.177 222.362 201.09 222.728 198.027 222.451C164.05 218.759 131.413 207.149 102.738 188.553C76.059 171.6 53.4402 148.982 36.4875 122.303C17.8269 93.4977 6.21397 60.7016 2.58962 26.5719C2.3137 23.5185 2.67657 20.4411 3.65515 17.5357C4.63372 14.6302 6.20655 11.9603 8.2735 9.69605C10.3404 7.43176 12.8562 5.62265 15.6606 4.38392C18.4651 3.14518 21.4967 2.50396 24.5625 2.50107H57.6875C63.0461 2.44833 68.2411 4.3459 72.3041 7.84008C76.3671 11.3343 79.0209 16.1866 79.7709 21.4927C81.169 32.0935 83.7619 42.502 87.5 52.5198C88.9856 56.4719 89.3071 60.767 88.4265 64.8962C87.5459 69.0254 85.5 72.8156 82.5313 75.8177L68.5084 89.8407C84.2268 117.484 107.115 140.372 134.758 156.091L148.781 142.068C151.783 139.099 155.574 137.053 159.703 136.173C163.832 135.292 168.127 135.613 172.079 137.099C182.097 140.837 192.506 143.43 203.106 144.828C208.47 145.585 213.368 148.286 216.87 152.419C220.372 156.552 222.232 161.828 222.098 167.243Z" stroke="white" stroke-width="5" stroke-linecap="round" stroke-linejoin="round"/>
</svg>
