<svg width="52" height="52" viewBox="0 0 52 52" fill="none" xmlns="http://www.w3.org/2000/svg">
<path d="M1.02513 46.0251C-0.341709 47.392 -0.341709 49.608 1.02513 50.9749C2.39196 52.3417 4.60804 52.3417 5.97487 50.9749L3.5 48.5L1.02513 46.0251ZM52 3.5C52 1.567 50.433 0 48.5 0H17C15.067 0 13.5 1.567 13.5 3.5C13.5 5.433 15.067 7 17 7H45V35C45 36.933 46.567 38.5 48.5 38.5C50.433 38.5 52 36.933 52 35V3.5ZM3.5 48.5L5.97487 50.9749L50.9749 5.97487L48.5 3.5L46.0251 1.02513L1.02513 46.0251L3.5 48.5Z" fill="white"/>
</svg>
