<svg viewBox="0 0 47.5723 42" xmlns="http://www.w3.org/2000/svg" xmlns:xlink="http://www.w3.org/1999/xlink" width="47.572266" height="42.000000" fill="none" customFrame="#000000">
	<g id="Группа 47">
		<path id="Многоугольник 1" d="M47.4901 38.2961Q47.3902 37.8834 47.1689 37.5L26.3843 1.5Q26.163 1.11668 25.8555 0.823802Q25.583 0.564246 25.2429 0.375721Q24.917 0.195115 24.5679 0.101325Q24.1906 0 23.7862 0Q23.3818 0 23.0045 0.101325Q22.6554 0.195115 22.3295 0.375721Q21.9894 0.564243 21.7169 0.823795Q21.4094 1.11668 21.1881 1.5L0.403505 37.5Q0.182191 37.8833 0.0822812 38.296Q-0.00625622 38.6618 0.000546217 39.0506Q0.00706315 39.4231 0.100425 39.7724Q0.201286 40.1497 0.403506 40.5Q0.605728 40.8503 0.882091 41.1263Q1.1379 41.3818 1.45723 41.5737Q1.79057 41.774 2.1516 41.8802Q2.55897 42 3.00158 42L44.5708 42Q45.0134 42 45.4208 41.8802Q45.7818 41.774 46.1151 41.5737Q46.4345 41.3818 46.6903 41.1263Q46.9667 40.8503 47.1689 40.5Q47.3711 40.1497 47.472 39.7724Q47.5653 39.4231 47.5718 39.0506Q47.5786 38.6618 47.4901 38.2961ZM45.4368 38.5L24.6522 2.5C24.2673 1.83333 23.3051 1.83333 22.9202 2.5L2.13556 38.5C1.75066 39.1667 2.23178 40 3.00158 40L44.5708 40C45.3406 40 45.8217 39.1667 45.4368 38.5Z" fill="rgb(255,123,123)" fill-rule="evenodd" />
		<g id="Группа 48">
			<path id="Вектор 10" d="M23.7695 9.5L23.7695 26" stroke="rgb(255,123,123)" stroke-linecap="round" stroke-width="3.000000" />
			<path id="Вектор 11" d="M23.7695 32L23.7695 35.5" stroke="rgb(255,123,123)" stroke-linecap="round" stroke-width="3.000000" />
		</g>
	</g>
</svg>
